<svg xmlns="http://www.w3.org/2000/svg" xmlns:xlink="http://www.w3.org/1999/xlink" viewBox="0 0 64 64"><defs><linearGradient id="f" x1="11.128" x2="76.241" y1="62.872" y2="-2.241" xlink:href="#a"/><linearGradient id="a" x1="-11.148" x2="53.966" y1="40.597" y2="-24.517" gradientUnits="userSpaceOnUse"><stop class="stopColorfff200 svgShape" offset="0" stop-color="#fbbc05"/><stop class="stopColorcd118c svgShape" offset="1" stop-color="#ea4335"/></linearGradient><linearGradient id="c" x1="18.628" x2="83.741" y1="70.372" y2="5.259" xlink:href="#a"/><linearGradient id="d" x1=".628" x2="65.741" y1="52.372" y2="-12.741" xlink:href="#a"/><linearGradient id="e" x1="5.128" x2="70.241" y1="56.872" y2="-8.241" xlink:href="#a"/><linearGradient id="b" x1="4.939" x2="70.052" y1="56.684" y2="-8.43" xlink:href="#a"/><linearGradient id="g" x1="13.628" x2="78.741" y1="65.372" y2=".259" xlink:href="#a"/><linearGradient id="h" x1="15.128" x2="80.241" y1="66.872" y2="1.759" xlink:href="#a"/><linearGradient id="i" x1="-2.136" x2="62.978" y1="49.609" y2="-15.504" xlink:href="#a"/><linearGradient id="j" x1="1.864" x2="66.978" y1="53.609" y2="-11.504" xlink:href="#a"/><linearGradient id="k" x1="5.864" x2="70.978" y1="57.609" y2="-7.504" xlink:href="#a"/></defs><path fill="url(#a)" d="M24.36,13.59l-.39-.82-2.2-8.41A3,3,0,0,0,17.6,2.4L12.88,4.6A3,3,0,0,0,11.7,9.05l5.02,7.1.39.82a3.981,3.981,0,0,0,2.25,2.07,4.077,4.077,0,0,0,1.37.24,4,4,0,0,0,3.63-5.69Zm-6.43.79L13.33,7.9a.966.966,0,0,1-.15-.84.956.956,0,0,1,.54-.65l4.72-2.2a1,1,0,0,1,.42-.09,1.065,1.065,0,0,1,.43.09.992.992,0,0,1,.54.65l2.02,7.7Zm4.68,1.58a1.947,1.947,0,0,1-1.03,1.13,1.984,1.984,0,0,1-1.53.07,2.006,2.006,0,0,1-1.13-1.03l3.62-1.69A1.957,1.957,0,0,1,22.61,15.96Z"/><path fill="url(#b)" d="M60,23H56V22a1,1,0,0,0-1-1H9a1,1,0,0,0-1,1v1H4a2.006,2.006,0,0,0-2,2v5a5,5,0,0,0,5,5H8v4a5,5,0,0,0,5,5H51a5,5,0,0,0,5-5V35h1a5,5,0,0,0,5-5V25A2.006,2.006,0,0,0,60,23ZM8,28.04V33H7a3.009,3.009,0,0,1-3-3V25H8ZM54,34v5a3.009,3.009,0,0,1-3,3H13a3.009,3.009,0,0,1-3-3V30.191a10.909,10.909,0,0,1,2.427.737A12.02,12.02,0,0,0,17.6,31.96a12.05,12.05,0,0,0,5.171-1.031A10.208,10.208,0,0,1,27.2,30.04a10.211,10.211,0,0,1,4.428.889,12.036,12.036,0,0,0,5.169,1.031,12.054,12.054,0,0,0,5.173-1.031,10.215,10.215,0,0,1,4.43-.889,10.22,10.22,0,0,1,4.431.889,12.387,12.387,0,0,0,3.173.9Zm0-10v5.809a10.861,10.861,0,0,1-2.431-.738A12.05,12.05,0,0,0,46.4,28.04a12.048,12.048,0,0,0-5.172,1.031,10.223,10.223,0,0,1-4.431.889,10.227,10.227,0,0,1-4.427-.888A12.02,12.02,0,0,0,27.2,28.04a12.05,12.05,0,0,0-5.171,1.031,10.208,10.208,0,0,1-4.428.889,10.211,10.211,0,0,1-4.428-.889A12.327,12.327,0,0,0,10,28.17V23H54Zm6,6a3.009,3.009,0,0,1-3,3H56V25h4Z"/><path fill="url(#c)" d="M54,57V55a1,1,0,0,0-1-1H51.44A3.906,3.906,0,0,0,52,52c0-1.94-2.71-5.06-3.26-5.67a1.027,1.027,0,0,0-1.48,0C46.71,46.94,44,50.06,44,52a3.906,3.906,0,0,0,.56,2H43a1,1,0,0,0-1,1v2H38V55a1,1,0,0,0-1-1H35.44A3.906,3.906,0,0,0,36,52c0-1.94-2.71-5.06-3.26-5.67a1.027,1.027,0,0,0-1.48,0C30.71,46.94,28,50.06,28,52a3.906,3.906,0,0,0,.56,2H27a1,1,0,0,0-1,1v2H22V55a1,1,0,0,0-1-1H19.44A3.906,3.906,0,0,0,20,52c0-1.94-2.71-5.06-3.26-5.67a1.027,1.027,0,0,0-1.48,0C14.71,46.94,12,50.06,12,52a3.906,3.906,0,0,0,.56,2H11a1,1,0,0,0-1,1v2a1,1,0,0,0-1,1v3a1,1,0,0,0,1,1H54a1,1,0,0,0,1-1V58A1,1,0,0,0,54,57Zm-6-8.45c1.06,1.33,2,2.83,2,3.45a2,2,0,0,1-4,0C46,51.36,46.94,49.87,48,48.55ZM44,56h8v1H44ZM32,48.55c1.06,1.33,2,2.83,2,3.45a2,2,0,0,1-4,0C30,51.36,30.94,49.87,32,48.55ZM28,56h8v1H28ZM16,48.55c1.06,1.33,2,2.83,2,3.45a2,2,0,0,1-4,0C14,51.36,14.94,49.87,16,48.55ZM12,56h8v1H12Zm41,4H11V59H53Z"/><rect width="2" height="2" x="16" y="35" fill="url(#d)"/><rect width="2" height="2" x="22" y="38" fill="url(#e)"/><rect width="2" height="2" x="27" y="33" fill="url(#e)"/><rect width="2" height="2" x="35" y="37" fill="url(#f)"/><rect width="2" height="2" x="45" y="32" fill="url(#g)"/><rect width="2" height="2" x="42" y="38" fill="url(#h)"/><path fill="url(#i)" d="M32,16.5A1.5,1.5,0,0,1,33.5,15,3.5,3.5,0,0,0,37,11.5V10H35v1.5A1.5,1.5,0,0,1,33.5,13,3.5,3.5,0,0,0,30,16.5V17h2Z"/><path fill="url(#j)" d="M40,16.5A1.5,1.5,0,0,1,41.5,15,3.5,3.5,0,0,0,45,11.5V10H43v1.5A1.5,1.5,0,0,1,41.5,13,3.5,3.5,0,0,0,38,16.5V17h2Z"/><path fill="url(#k)" d="M48,16.5A1.5,1.5,0,0,1,49.5,15,3.5,3.5,0,0,0,53,11.5V10H51v1.5A1.5,1.5,0,0,1,49.5,13,3.5,3.5,0,0,0,46,16.5V17h2Z"/></svg>